<mxfile host="65bd71144e">
    <diagram id="t-RRLRTdqQYdYJ_F2kF2" name="Page-1">
        <mxGraphModel dx="3960" dy="2226" grid="1" gridSize="10" guides="1" tooltips="1" connect="1" arrows="1" fold="1" page="1" pageScale="1" pageWidth="1169" pageHeight="827" background="#ffffff" math="0" shadow="0">
            <root>
                <mxCell id="0"/>
                <mxCell id="1" parent="0"/>
                <mxCell id="3" value="&lt;table data-sheets-baot=&quot;1&quot; data-sheets-root=&quot;1&quot; style=&quot;table-layout:fixed;font-size:10pt;font-family:Arial;width:0px;border-collapse:collapse;border:none&quot; border=&quot;1&quot; dir=&quot;ltr&quot; cellpadding=&quot;0&quot; cellspacing=&quot;0&quot; xmlns=&quot;http://www.w3.org/1999/xhtml&quot;&gt;&lt;colgroup&gt;&lt;col width=&quot;34&quot;&gt;&lt;col width=&quot;123&quot;&gt;&lt;col width=&quot;74&quot;&gt;&lt;col width=&quot;176&quot;&gt;&lt;col width=&quot;146&quot;&gt;&lt;/colgroup&gt;&lt;tbody&gt;&lt;tr style=&quot;height:21px;&quot;&gt;&lt;td colspan=&quot;1&quot; rowspan=&quot;8&quot; style=&quot;border-top:1px solid #000000;border-right:1px solid #000000;border-bottom:1px solid #000000;border-left:1px solid #000000;overflow:hidden;padding:2px 3px 2px 3px;vertical-align:middle;text-align:center;&quot;&gt;&lt;span&gt;&lt;div style=&quot;max-height:168px&quot;&gt;糖類&lt;/div&gt;&lt;/span&gt;&lt;/td&gt;&lt;td colspan=&quot;2&quot; rowspan=&quot;1&quot; style=&quot;border-top:1px solid #000000;border-right:1px solid #000000;border-bottom:1px solid #000000;overflow:hidden;padding:2px 3px 2px 3px;vertical-align:middle;text-align:center;&quot;&gt;単糖類&lt;/td&gt;&lt;td style=&quot;border-top:1px solid #000000;border-right:1px solid #000000;border-bottom:1px solid #000000;overflow:hidden;padding:2px 3px 2px 3px;vertical-align:bottom;&quot;&gt;グルコース（ブドウ糖）&lt;/td&gt;&lt;td style=&quot;border-top:1px solid #000000;border-right:1px solid #000000;border-bottom:1px solid #000000;overflow:hidden;padding:2px 3px 2px 3px;vertical-align:middle;&quot;&gt;G&lt;/td&gt;&lt;/tr&gt;&lt;tr style=&quot;height:21px;&quot;&gt;&lt;td colspan=&quot;1&quot; rowspan=&quot;7&quot; style=&quot;border-right:1px solid #000000;border-bottom:1px solid #000000;overflow:hidden;padding:2px 3px 2px 3px;vertical-align:middle;text-align:center;&quot;&gt;&lt;span&gt;&lt;div style=&quot;max-height:147px&quot;&gt;少糖類&lt;br&gt;（結合数 2 ~ 10）&lt;/div&gt;&lt;/span&gt;&lt;/td&gt;&lt;td colspan=&quot;1&quot; rowspan=&quot;6&quot; style=&quot;border-right:1px solid #000000;border-bottom:1px solid #000000;overflow:hidden;padding:2px 3px 2px 3px;vertical-align:middle;text-align:center;&quot;&gt;&lt;span&gt;&lt;div style=&quot;max-height:126px&quot;&gt;二糖類&lt;/div&gt;&lt;/span&gt;&lt;/td&gt;&lt;td style=&quot;border-right:1px solid #000000;border-bottom:1px solid #000000;overflow:hidden;padding:2px 3px 2px 3px;vertical-align:bottom;&quot;&gt;フルクトース（果糖）&lt;/td&gt;&lt;td style=&quot;border-right:1px solid #000000;border-bottom:1px solid #000000;overflow:hidden;padding:2px 3px 2px 3px;vertical-align:middle;&quot;&gt;F&lt;/td&gt;&lt;/tr&gt;&lt;tr style=&quot;height:21px;&quot;&gt;&lt;td style=&quot;border-right:1px solid #000000;border-bottom:1px solid #000000;overflow:hidden;padding:2px 3px 2px 3px;vertical-align:bottom;&quot;&gt;ガラクトース&lt;/td&gt;&lt;td style=&quot;border-right:1px solid #000000;border-bottom:1px solid #000000;overflow:hidden;padding:2px 3px 2px 3px;vertical-align:middle;&quot;&gt;Ga&lt;/td&gt;&lt;/tr&gt;&lt;tr style=&quot;height:21px;&quot;&gt;&lt;td style=&quot;border-right:1px solid #000000;border-bottom:1px solid #000000;overflow:hidden;padding:2px 3px 2px 3px;vertical-align:bottom;&quot;&gt;スクロース（ショ糖）&lt;/td&gt;&lt;td style=&quot;border-right:1px solid #000000;border-bottom:1px solid #000000;overflow:hidden;padding:2px 3px 2px 3px;vertical-align:middle;&quot;&gt;G + F&lt;/td&gt;&lt;/tr&gt;&lt;tr style=&quot;height:21px;&quot;&gt;&lt;td style=&quot;border-right:1px solid #000000;border-bottom:1px solid #000000;overflow:hidden;padding:2px 3px 2px 3px;vertical-align:bottom;&quot;&gt;ラクトース（乳糖）&lt;/td&gt;&lt;td style=&quot;border-right:1px solid #000000;border-bottom:1px solid #000000;overflow:hidden;padding:2px 3px 2px 3px;vertical-align:middle;&quot;&gt;G + Ga&lt;/td&gt;&lt;/tr&gt;&lt;tr style=&quot;height:21px;&quot;&gt;&lt;td style=&quot;border-right:1px solid #000000;border-bottom:1px solid #000000;overflow:hidden;padding:2px 3px 2px 3px;vertical-align:bottom;&quot;&gt;マルトース（麦芽糖）&lt;/td&gt;&lt;td style=&quot;border-right:1px solid #000000;border-bottom:1px solid #000000;overflow:hidden;padding:2px 3px 2px 3px;vertical-align:middle;&quot;&gt;G + G&lt;/td&gt;&lt;/tr&gt;&lt;tr style=&quot;height:21px;&quot;&gt;&lt;td style=&quot;border-right:1px solid #000000;border-bottom:1px solid #000000;overflow:hidden;padding:2px 3px 2px 3px;vertical-align:bottom;&quot;&gt;トレハロース&lt;/td&gt;&lt;td style=&quot;border-right:1px solid #000000;border-bottom:1px solid #000000;overflow:hidden;padding:2px 3px 2px 3px;vertical-align:middle;&quot;&gt;&lt;/td&gt;&lt;/tr&gt;&lt;tr style=&quot;height:21px;&quot;&gt;&lt;td style=&quot;border-right:1px solid #000000;border-bottom:1px solid #000000;overflow:hidden;padding:2px 3px 2px 3px;vertical-align:middle;text-align:center;&quot;&gt;三糖類以上&lt;/td&gt;&lt;td style=&quot;border-right:1px solid #000000;border-bottom:1px solid #000000;overflow:hidden;padding:2px 3px 2px 3px;vertical-align:bottom;&quot;&gt;オリゴ糖（結合数 3 ~ 10）&lt;/td&gt;&lt;td style=&quot;border-right:1px solid #000000;border-bottom:1px solid #000000;overflow:hidden;padding:2px 3px 2px 3px;vertical-align:middle;&quot;&gt;G + G + G + ...&lt;/td&gt;&lt;/tr&gt;&lt;tr style=&quot;height:21px;&quot;&gt;&lt;td colspan=&quot;1&quot; rowspan=&quot;5&quot; style=&quot;border-right:1px solid #000000;border-bottom:1px solid #000000;border-left:1px solid #000000;overflow:hidden;padding:2px 3px 2px 3px;vertical-align:middle;text-align:center;&quot;&gt;&lt;span&gt;&lt;div style=&quot;max-height:105px&quot;&gt;糖質&lt;/div&gt;&lt;/span&gt;&lt;/td&gt;&lt;td colspan=&quot;2&quot; rowspan=&quot;4&quot; style=&quot;border-right:1px solid #000000;border-bottom:1px solid #000000;overflow:hidden;padding:2px 3px 2px 3px;vertical-align:middle;text-align:center;&quot;&gt;&lt;span&gt;&lt;div style=&quot;max-height:84px&quot;&gt;多糖類&lt;br&gt;（結合数 10 以上）&lt;/div&gt;&lt;/span&gt;&lt;/td&gt;&lt;td style=&quot;border-right:1px solid #000000;border-bottom:1px solid #000000;overflow:hidden;padding:2px 3px 2px 3px;vertical-align:bottom;&quot;&gt;デキストリン&lt;/td&gt;&lt;td colspan=&quot;1&quot; rowspan=&quot;4&quot; style=&quot;border-right:1px solid #000000;border-bottom:1px solid #000000;overflow:hidden;padding:2px 3px 2px 3px;vertical-align:middle;&quot;&gt;&lt;span&gt;&lt;div style=&quot;max-height:84px&quot;&gt;G + G + G + G + G + ...&lt;/div&gt;&lt;/span&gt;&lt;/td&gt;&lt;/tr&gt;&lt;tr style=&quot;height:21px;&quot;&gt;&lt;td style=&quot;border-right:1px solid #000000;border-bottom:1px solid #000000;overflow:hidden;padding:2px 3px 2px 3px;vertical-align:bottom;&quot;&gt;デンプン&lt;/td&gt;&lt;/tr&gt;&lt;tr style=&quot;height:21px;&quot;&gt;&lt;td style=&quot;border-right:1px solid #000000;border-bottom:1px solid #000000;overflow:hidden;padding:2px 3px 2px 3px;vertical-align:bottom;&quot;&gt;セルロース&lt;/td&gt;&lt;/tr&gt;&lt;tr style=&quot;height:21px;&quot;&gt;&lt;td style=&quot;border-right:1px solid #000000;border-bottom:1px solid #000000;overflow:hidden;padding:2px 3px 2px 3px;vertical-align:bottom;&quot;&gt;グリコーゲン&lt;/td&gt;&lt;/tr&gt;&lt;tr style=&quot;height:21px;&quot;&gt;&lt;td colspan=&quot;2&quot; rowspan=&quot;1&quot; style=&quot;border-right:1px solid #000000;border-bottom:1px solid #000000;overflow:hidden;padding:2px 3px 2px 3px;vertical-align:middle;text-align:center;&quot;&gt;糖アルコール&lt;/td&gt;&lt;td style=&quot;border-right:1px solid #000000;border-bottom:1px solid #000000;overflow:hidden;padding:2px 3px 2px 3px;vertical-align:bottom;&quot;&gt;キシリトール&lt;/td&gt;&lt;td style=&quot;border-right:1px solid #000000;border-bottom:1px solid #000000;overflow:hidden;padding:2px 3px 2px 3px;vertical-align:middle;&quot;&gt;&lt;/td&gt;&lt;/tr&gt;&lt;/tbody&gt;&lt;/table&gt;" style="text;whiteSpace=wrap;html=1;" vertex="1" parent="1">
                    <mxGeometry x="310" y="240" width="560" height="300" as="geometry"/>
                </mxCell>
            </root>
        </mxGraphModel>
    </diagram>
</mxfile>